<?xml version="1.0" encoding="UTF-8"?>
<svg id="Layer_1" xmlns="http://www.w3.org/2000/svg" version="1.1" viewBox="0 0 684.59 97.65">
  <!-- Generator: Adobe Illustrator 29.4.0, SVG Export Plug-In . SVG Version: 2.1.0 Build 152)  -->
  <defs>
    <style>
      .st0 {
        fill: #fff;
      }
    </style>
  </defs>
  <g id="TEXT_FINAL">
    <path class="st0" d="M0,2.29c2.7,3.64,4.45,9.17,4.45,15.24v62.58c0,6.07-1.75,11.6-4.45,15.24v.67h24.82v-.67c-2.7-3.64-4.45-9.17-4.45-15.24V17.53c0-6.07,1.75-11.6,4.45-15.24v-.67H0v.67Z"/>
    <path class="st0" d="M106.95,2.43c3.78,4.45,6.61,9.04,6.61,15.11v48.23c0,1.8-2.3,2.54-3.35,1.08L63.67,2.39c-.35-.48-.91-.77-1.5-.77h-19.69v.81c3.78,4.45,6.61,9.04,6.61,15.11v62.58c0,6.07-2.83,10.66-6.61,15.11v.81h16.99v-.81c-3.78-4.45-6.61-9.04-6.61-15.11V19.96c0-1.79,2.29-2.54,3.34-1.09l55.85,76.4c.35.48.9.76,1.49.76h1.93c1.02,0,1.85-.83,1.85-1.85V17.53c0-6.07,2.83-10.66,6.61-15.11v-.81h-16.99v.81Z"/>
    <path class="st0" d="M173.98,39.52c-13.22-4.45-23.47-8.77-23.47-19.42s8.09-16.45,17.8-16.45c12.71,0,21.74,9.81,26.81,23.98.26.74.96,1.24,1.74,1.24h.04V6.96c0-.72-.41-1.38-1.06-1.68-5.13-2.36-15.08-5.28-25.37-5.28-19.15,0-31.69,11.6-31.69,27.38,0,18.34,13.08,23.74,29,28.86,11.46,3.64,22.39,8.23,22.39,20.1,0,10.12-7.28,17.67-19.02,17.67-12.88,0-24.22-10.63-29.53-26.76-.25-.76-.95-1.29-1.76-1.29h0v23.83c0,.7.39,1.34,1.02,1.66,5.54,2.76,16.52,6.21,28.92,6.21,19.96,0,33.04-11.73,33.04-28.32,0-19.83-14.7-25.09-28.86-29.81Z"/>
    <path class="st0" d="M295.5,26.44l-2.77-23.19c-.11-.93-.9-1.63-1.84-1.63h-78.32c-.93,0-1.72.69-1.84,1.62l-2.9,23.2h.16c.73,0,1.38-.43,1.68-1.09,5.6-12.22,12.88-20.62,27.16-20.62h4.89c1.02,0,1.85.83,1.85,1.85v73.54c0,6.07-1.75,11.6-4.45,15.24v.67h25.09v-.67c-2.7-3.64-4.45-9.17-4.45-15.24V6.57c0-1.02.83-1.85,1.85-1.85h5.03c14.27,0,21.56,8.39,27.03,20.61.3.67.96,1.1,1.69,1.1h.14Z"/>
    <path class="st0" d="M335.77,1.35h-5.3c-.76,0-1.44.46-1.72,1.17l-30.56,77.59c-2.56,6.61-5.93,11.46-11.06,15.24v.67h18.34v-.67c-4.18-3.64-5.93-9.17-3.1-16.18l5.61-14.08c.28-.7.96-1.17,1.72-1.17h33.23c.76,0,1.44.46,1.72,1.17l5.87,14.75c2.7,6.61.81,12.27-2.02,15.51v.67h28.73v-.67c-4.32-4.58-6.61-8.5-9.31-15.37L337.5,2.52c-.28-.71-.96-1.17-1.72-1.17ZM310.51,58.3l14.14-36.09c.61-1.57,2.84-1.57,3.45,0l14.03,36.09c.47,1.21-.42,2.52-1.72,2.52h-28.17c-1.3,0-2.2-1.31-1.72-2.53Z"/>
    <path class="st0" d="M518.52,1.35h-5.3c-.76,0-1.44.46-1.72,1.17l-27.44,69.67v.02c-2.59,5.48-6,10.69-10.24,15.44-.96,1.07-1.97,2.08-3.02,3.02l-.03.03c-.69.68-2.03,1.69-4.26,1.69-6.2,0-9.58-8.36-12.95-17.53-4.05-10.92-9.44-23.47-22.52-23.87v-.4c12.41-.67,26.97-8.09,26.97-24.01,0-18.07-17.13-24.95-34.8-24.95h-35.88v.67c2.7,3.64,4.45,9.17,4.45,15.24v62.58c0,6.07-1.75,11.6-4.45,15.24v.67h25.09v-.67c-2.7-3.64-4.45-9.17-4.45-15.24v-26.61c0-1.02.83-1.85,1.85-1.85h7.73c8.9,0,12.14,9.04,15.51,19.02,4.17,12.25,9.02,26.24,25.66,26.3.07,0,.13,0,.2,0l10.88-.93c.05,0,.1,0,.16,0h18.26v-.67c-4.18-3.64-5.93-9.17-3.1-16.18l5.61-14.08c.28-.7.96-1.17,1.72-1.17h33.23c.76,0,1.44.46,1.72,1.17l5.87,14.75c2.7,6.61.81,12.27-2.02,15.51v.67h28.73v-.67c-4.32-4.58-6.61-8.5-9.31-15.37l-30.42-77.46c-.28-.71-.96-1.17-1.72-1.17ZM421.06,48.55h-11.23c-1.02,0-1.85-.83-1.85-1.85V8.08c0-.82.53-1.54,1.31-1.77,3.44-1.05,7.62-1.58,10.96-1.58,12.95,0,20.91,8.09,20.91,21.85s-7.96,21.98-20.1,21.98ZM493.25,58.3l14.14-36.09c.61-1.57,2.84-1.57,3.45,0l14.03,36.09c.47,1.21-.42,2.52-1.72,2.52h-28.17c-1.3,0-2.2-1.31-1.72-2.53Z"/>
    <path class="st0" d="M666.25,1.62v.67c4.05,3.37,5.8,8.36,2.97,16.32l-19.84,55.05c-.59,1.63-2.89,1.63-3.48,0l-20.11-55.86c-2.43-6.88,0-12.27,2.83-15.51v-.67h-28.59v.67c3.91,4.05,6.07,8.5,8.63,15.38l6.1,16.36c.15.41.16.86,0,1.27l-13.81,38.38c-.59,1.63-2.89,1.63-3.48,0l-20.24-55.88c-2.43-6.88-.13-12.27,2.56-15.51v-.67h-28.46v.67c3.78,4.05,6.34,8.5,8.77,15.38l28.02,77.41c.27.73.96,1.22,1.74,1.22h5.23c.78,0,1.47-.49,1.74-1.22l18.18-50.22c.59-1.63,2.89-1.63,3.48,0l18.18,50.22c.27.73.96,1.22,1.74,1.22h5.23c.78,0,1.48-.49,1.74-1.22l27.88-77.27c2.43-6.74,6.2-11.6,11.33-15.51v-.67h-18.34Z"/>
  </g>
</svg>